<svg id="Calque_1" data-name="Calque 1" xmlns="http://www.w3.org/2000/svg" viewBox="0 0 500 500"><defs><style>.cls-1{fill:#161619;}.cls-2{fill:none;stroke-width:6px;fill-rule:evenodd;}.cls-2,.cls-3{stroke:#fff;stroke-miterlimit:10;}.cls-3{fill:#0a0a0a;stroke-width:5px;opacity:0.98;}.cls-4{font-size:100.85px;font-family:YuGothic-Bold, Yu Gothic;font-weight:700;}.cls-4,.cls-5{fill:#fff;}.cls-5{font-size:120.1px;font-family:Calibri;}</style></defs><rect class="cls-1" x="9.61" y="10.23" width="480" height="480" rx="40"/><path id="Layer" class="cls-2" d="M426.22,292l-6,14.46c-1.63,8.08-3.14,15.78-4.75,24-2.73,10.22-17.19,39.34-31.56,37.42-18.71-2.73-8.21,13.65-10.53,20.34-.61,1-1.25,2-1.92,2.93a19.31,19.31,0,0,1-2.23,2.61,27.67,27.67,0,0,1-2.52,2.45,28.49,28.49,0,0,1-2.74,2.21q-3.42,2.73-7.07,5.37t-7.2,5.16q-3.62,2.52-7.36,4.94t-7.51,4.77q-1.92,1.51-3.93,2.93t-4.06,2.61q-2,1.32-4.15,2.45c-1.4.74-2.85,1.47-4.34,2.21-6.16,2.13-11.63-3.62-17.1-1.3s-7.08,9.6-12.55,12.64c-7.67,4.13-45.31,12.52-45.31-3.24,3.84-1.22,15.88-7.69,23.27-11.53l12-7.58c5.47-1.63,11.95,1.41,17.2-1s6.38-8.8,10.72-12.64c10-9.12,23.46-13.55,33.27-23.46a32.84,32.84,0,0,0,3.34-3.45,34.74,34.74,0,0,0,2.73-3.94q1.13-2.13,2-4.34a42.5,42.5,0,0,0,1.3-4.65c.91-6.7-3.75-16.29,1.53-21.13s13.14-4.87,18.61-10c14.06-13.34,21.45-48.65,9.81-66.73s-31.37-14.06-38.35,4.75c-1.8,5.25-3.84,27.89-7.08,29.93-7.07,3.94-15-14.27-17.48-18.2q-1.64-2.24-3.24-4.56c-1-1.55-2-3.1-2.95-4.65s-1.95-3.2-2.83-4.75-1.82-3.27-2.62-4.94h-3.14c0,22.13,7.29,41,13.15,60.25,1.12,3.74,2.13,8.2-.7,8.2-.94-.33-1.85-.64-2.73-.91a22.43,22.43,0,0,0-2.83-.62,23.05,23.05,0,0,0-3-.39,16.83,16.83,0,0,0-2.84,0C286.21,330,284.07,337.57,271,342c-.4.33-.83.67-1.29,1s-.86.57-1.32.91l-1.42.81q-.72.4-1.41.72c1.41,11-4.15,9.91-7.29,18.09a51.58,51.58,0,0,0-.92,5.25c-.2,1.82-.37,3.65-.5,5.47s-.06,3.54,0,5.35.3,3.61.5,5.37a5.53,5.53,0,0,1-.19,1.51,4.11,4.11,0,0,1-.81,1.23,3.36,3.36,0,0,1-1.11,1,6.37,6.37,0,0,1-1.44.51c-.73-1.55-1.44-3.07-2.11-4.56s-1.31-3.13-1.92-4.75-1-3.13-1.51-4.75-.88-3.27-1.22-5c-.31-1.11-.19-1.11-1.42-1.11-10.31-3.93-12.13,11-18.51,11-4.15-9.72,2.83-17.11,4.05-26.1v-1a.86.86,0,0,0-.1-.41c-.08-.14-.15-.28-.21-.4l-.41-.2h-.41c-5.15.51-8.58,3-13.33,3,.91-10.32,9.71-12.64,17.29-17.3.74-.67,1.48-1.31,2.23-1.92s1.51-1.21,2.33-1.82,1.54-1.08,2.42-1.61,1.62-1.05,2.42-1.53c5.26-1.92,11.73,0,14.88-5.26,2-3.52-1.23-8.08-.41-11.72,4.24-19.63,14.56-39.53,13.14-61.17-.69-9.93-10.72-17.61-7.17-27.83a54.39,54.39,0,0,1,3.33-7.17,63,63,0,0,1,4.25-6.57,67.36,67.36,0,0,1,5.28-5.88,49,49,0,0,1,6.07-4.94c8-3.55,19.52,1.92,23.77-7.58,4.75-10.84-3.87-21.54-12.86-26.09-17.8-9.12-58.36-10.54-61.81,14.56a23.64,23.64,0,0,0,.31,3.83,21.89,21.89,0,0,0,.91,3.65,30,30,0,0,0,1.41,3.52q.92,1.74,1.92,3.36a21.34,21.34,0,0,1,.41,12.43,24.05,24.05,0,0,1-2.23,5.87,26,26,0,0,1-3.84,5,23.09,23.09,0,0,1-2.73,3,32.12,32.12,0,0,1-3.24,2.64,20.86,20.86,0,0,1-3.53,2.11,26.82,26.82,0,0,1-3.74,1.72c-11.94,3.24-28.33-5.06-32.79,8.9a8.42,8.42,0,0,0-.09,2.83,9.14,9.14,0,0,0,.6,2.74,8.85,8.85,0,0,0,1.41,2.42,8.41,8.41,0,0,0,1.92,2c7.39,6.88,31.78,15,34.49,23.17s-3.74,15.47.82,24.56c1.51,3.24,8.2,10.72.81,12.64s-11.63-6.67-18.2-6.67a45.71,45.71,0,0,1,3,5.86,52.86,52.86,0,0,1,2.23,6.16,55.67,55.67,0,0,1,1.42,6.48,54.74,54.74,0,0,1,.6,6.57c-9.19-2.74-11.11-9.4-15.57-16.38l-1.22-1.2a8.74,8.74,0,0,1-1-1.23c-.34-.4-.67-.84-1-1.32s-.54-.93-.81-1.41c-5.45,3.33-4.15,11.73-4.15,18.11-14.25-5-3.43-15.78-7.49-24.68a25.54,25.54,0,0,0-2.11-1.92,17,17,0,0,0-2.23-1.71c-.82-.54-1.65-1.05-2.52-1.53s-1.66-.77-2.54-1.1c-.34-.21-.64-.41-.91-.6a4.47,4.47,0,0,1-.7-.92,3.48,3.48,0,0,1-.5-.91,2.7,2.7,0,0,1-.22-1.12c-.69-7.08,5.78-12.74,2.64-20.42-2.42-5.56-11.13-5.15-13-10.93s2.42-10.51,3-15.67c1.23-11.32-20.22-17.8-29-18.4a15.72,15.72,0,0,0-4.05.1,20.94,20.94,0,0,0-3.84,1,20.43,20.43,0,0,0-3.55,1.92,19.77,19.77,0,0,0-3.12,2.54c-19.12,18.59,12.55,21.54,10,36.7-1.1,6.76-10.91,5.76-14.36,10.82a7.57,7.57,0,0,0-.92,2.63,6,6,0,0,0,.12,2.84,5.8,5.8,0,0,0,1.2,2.51,6.49,6.49,0,0,0,2.14,1.83,9.8,9.8,0,0,0,1.82,1.22,6.69,6.69,0,0,0,2,.89,7.92,7.92,0,0,0,2.13.53c.74.06,1.47.09,2.21.09a4.76,4.76,0,0,0,1.41,0,8.93,8.93,0,0,0,1.54-.31,4.05,4.05,0,0,0,1.2-.82,4.38,4.38,0,0,0,1.12-1l1.83,1.12c14,11-1,36.39,0,52s9.3,28.4,12,43.37c2.95,17.7-7.58,46.22-25.47,51.57l-2.54.22q-1.2,0-2.52-.12a18.79,18.79,0,0,1-2.54-.19,15,15,0,0,1-2.43-.41c.88-2.29,1.69-4.61,2.43-7a67.18,67.18,0,0,0,1.82-7.27q.72-3.65,1.13-7.29t.5-7.39a38.87,38.87,0,0,0-1.73-7.48,41.36,41.36,0,0,0-3-7,37.66,37.66,0,0,0-4.15-6.38,40.58,40.58,0,0,0-5.28-5.47c-8.17-7.67-29.21-18.71-28.3-31s36.1-11.42,29.22-27.8c-9.09-20.22-28.12,27.71-39.44,10.1-4-6.16-1.92-14.06-4-21.13l-1.82-3.65q-.8-1.92-1.41-3.84a36.5,36.5,0,0,1-1.2-3.93,29.2,29.2,0,0,1-.72-4.05c.33-1.41.71-2.86,1.12-4.34s.64-3.08.92-4.56.63-3,.88-4.44.42-3.07.63-4.56c-.72-10.12-12-26.89-1.92-36.41s31.25,15.28,37.83-7c1.82-6.45-2.64-9.91-2.64-15.88.09-11.92,13.45-21.63,7.7-34.87v-.72c-3.75-5.86-14.88-4.85-16.39-11a8.35,8.35,0,0,1,0-2.64,8.51,8.51,0,0,1,.8-2.52,8.72,8.72,0,0,1,1.31-2.23A10.24,10.24,0,0,1,86,160.28c15.38-15,34.71,8.62,51.1,8.62a24.9,24.9,0,0,0,.91-3.46,21.27,21.27,0,0,0,.28-3.52,18.18,18.18,0,0,0-.09-3.46,19.65,19.65,0,0,0-.51-3.52c-3.33-8.9-24.77-21.86-19.71-30.54a9.78,9.78,0,0,1,1.2-2,12.42,12.42,0,0,1,1.63-1.7,9.71,9.71,0,0,1,2-1.22,11.7,11.7,0,0,1,2.14-.82c19.31-3.33,26.41,34.4,43.89,32.26q1.23-.28,2.43-.69a19.53,19.53,0,0,0,2.13-1.13,8.66,8.66,0,0,0,2-1.51,11.4,11.4,0,0,0,1.63-1.83c11.41-15-21.35-32.26-21.35-46,36-25.19,33.48,26,56.63,26v-1.3a44.6,44.6,0,0,0,1.32-4.87,33.36,33.36,0,0,0,.62-5,37.55,37.55,0,0,0-.12-5,36.22,36.22,0,0,0-.91-5c-1.2-4.94-7-17.89-4.12-22a14.88,14.88,0,0,1,2.2-1.82,17.57,17.57,0,0,1,2.43-1.42,24.41,24.41,0,0,1,2.63-1,12.8,12.8,0,0,1,2.74-.69c20.34,4.53,12.74,41,26.82,41,11.73,1.92,5.15-34.88,5.15-40.13,7.58-2.33,24.37,1.61,30.85,2.71,27.42,4.37,38.64,7.7,34.28,38.84a18.2,18.2,0,0,0-.51,3.14,17.57,17.57,0,0,0,.12,3.24,16.09,16.09,0,0,0,.92,3.14,13.48,13.48,0,0,0,1.51,2.83c8.18,7.67,20.94-10.12,24.58-15.07.53-.48,1-.95,1.42-1.41a14.81,14.81,0,0,0,1.29-1.54,8.83,8.83,0,0,0,1-1.6c.34-.61.64-1.22.92-1.83,1.07.82,2.15,1.6,3.23,2.33s2.15,1.56,3.22,2.23,2.3,1.31,3.45,1.92,2.39,1.18,3.53,1.7c5.06,1.13,9.52-1.7,14.37-.38,1.22.29,3.14.38,3.14,1.92-.21,1-.38,2-.5,2.93s-.1,2-.1,3,0,2,.1,3,.29,2,.5,3c2.42,5.66,10.22,9.81,10.22,16.38-.82,11.13-24.69,14.16-16.48,28.21a10.91,10.91,0,0,0,2.52,2.23,14.59,14.59,0,0,0,2.92,1.63,13.91,13.91,0,0,0,3.24.79,13.36,13.36,0,0,0,3.46,0c25.59-16.07,35,4.37,35,28.12-9.11-.29-30.75-7.89-30.25,7,.51,12.85,26.51,12.13,32,23.36s-6,20.72-3.75,31.76c1.73,8.18,12.36,8.18,8.93,19.91ZM97.14,299a13.73,13.73,0,0,0,4.25-6.86,14.14,14.14,0,0,0-.19-8,13.62,13.62,0,0,0-4.75-6.58A24.42,24.42,0,0,0,93.71,276a17,17,0,0,0-2.83-1.1,16.82,16.82,0,0,0-3.14-.72A24.53,24.53,0,0,0,84.6,274a15,15,0,0,0-2.74,1.51,15.63,15.63,0,0,0-2.51,1.92,16.28,16.28,0,0,0-2.24,2.23,24.35,24.35,0,0,0-1.82,2.52,13.83,13.83,0,0,0-1.61,7.48,13.25,13.25,0,0,0,2.52,7.2,14.43,14.43,0,0,0,6,4.75,13.09,13.09,0,0,0,7.58.81A13.35,13.35,0,0,0,97.14,299ZM160,190.94c-5.56,10.41-11.63,19.91,3,26.19a4.67,4.67,0,0,0,.91.51,6.44,6.44,0,0,0,1.13.28,4.27,4.27,0,0,0,1,.12h1.11c6.47-3.45,4-22.57-7.18-27.1Zm27.61,70.16c0,10.94-1.6,22.86,9.41,27.51a11.46,11.46,0,0,0,1.72.51q.92.09,1.92.09c.61,0,1.22,0,1.82-.09a15.62,15.62,0,0,0,1.83-.51c.14-.27.28-.54.41-.81s.26-.52.4-.79a3.67,3.67,0,0,0,.29-.92c.08-.27.15-.57.22-.91a30.09,30.09,0,0,0-1.73-7.7,34.75,34.75,0,0,0-3.74-6.86,28,28,0,0,0-5.57-5.56,28.36,28.36,0,0,0-6.76-4ZM295.9,309.24a42.13,42.13,0,0,0-.51-5.16c-.19-1.67-.46-3.36-.81-5.06s-.83-3.32-1.3-4.94-1.12-3.24-1.72-4.87c-2.43-12.42-.72-25.88-5.76-37q-1.64,5.69-2.95,11.35t-2.23,11.51q-.89,5.78-1.51,11.54t-.7,11.73c-.21,1.15-.38,2.29-.5,3.43a26.64,26.64,0,0,0-.22,3.45,27.31,27.31,0,0,0,.22,3.53c.12,1.15.29,2.29.5,3.43a10.91,10.91,0,0,0,1.92,3.14,10.28,10.28,0,0,0,2.83,2.33,9.85,9.85,0,0,0,3.33,1.41,9.64,9.64,0,0,0,3.65.31,12,12,0,0,0,2.11-2,13.78,13.78,0,0,0,1.73-2.52,11.05,11.05,0,0,0,1.32-2.74c.27-.94.5-1.88.69-2.83Zm55.33-112.35c-5.44,11.63-27.7,40.56-1.91,45.62,1.69.27,3.38.47,5.06.6s3.39.19,5.15.19,3.4.08,5.16,0,3.38-.06,5.06-.19c3.65-15.06-8-36.7-18.52-46.22Z"/><path class="cls-3" d="M429.66,250.9c9.77,0,19.25,1.64,27.62,7,12.3,7.92,17.37,20.08,17.79,34.16.5,17.22.27,34.47.25,51.71,0,11.36.35,22.75-.45,34.05C473.8,393,467.21,405.14,453,411.93c-8,3.84-16.65,4.69-25.41,4.64-5.5,0-5.5,0-5.5,5.7,0,8.21.15,16.42-.11,24.63s-7.43,12.07-14.45,8.2a29.61,29.61,0,0,1-5.49-4.2c-11.06-10.09-22.16-20.16-33-30.44a13.4,13.4,0,0,0-10.13-4c-23.33.18-46.66.35-70,.07-26-.32-42.55-15.26-43.35-40.69-.88-28-.62-56.09,0-84.13.28-13.81,5.53-25.92,17.75-33.77,7.77-5,16.51-7,25.57-7,23.88-.16,47.75-.05,71.63-.05Q395.07,250.9,429.66,250.9Z"/><text class="cls-4" transform="translate(308.61 370.17) scale(0.99 1)">文</text><path class="cls-3" d="M140.3,29.44c23.92,0,47.84-.11,71.76.06,9.08.06,17.83,2,25.63,7,12.24,7.87,17.5,20,17.78,33.84.58,28.09.84,56.23,0,84.3-.81,25.48-17.35,40.45-43.44,40.76-23.37.29-46.75.12-70.13-.06a13.41,13.41,0,0,0-10.14,4c-10.91,10.31-22,20.39-33.11,30.51a29.68,29.68,0,0,1-5.5,4.2c-7,3.89-14.22-.12-14.48-8.22s-.09-16.44-.11-24.67c0-5.68,0-5.75-5.51-5.71-8.78,0-17.43-.8-25.46-4.65-14.2-6.81-20.8-19-21.87-34.14-.8-11.33-.45-22.75-.46-34.12,0-17.27-.25-34.56.26-51.82C25.9,56.63,31,44.44,43.3,36.51c8.39-5.4,17.88-7,27.68-7Q105.63,29.4,140.3,29.44Z"/><text class="cls-5" transform="translate(106.13 150.03) scale(0.99 1)">A</text></svg>